<?xml version="1.0" encoding="UTF-8"?><svg id="a" xmlns="http://www.w3.org/2000/svg" viewBox="0 0 200 50"><rect x="0" y="5.77" width="200" height="37.54" style="fill:#333;"/><rect x="7" y="29.27" width="31.99" height="8.63" rx="4.31" ry="4.31" style="fill:#ccc;"/><rect x="44.05" y="29.27" width="31.99" height="8.63" rx="4.31" ry="4.31" style="fill:#ccc;"/><rect x="81.09" y="29.27" width="31.99" height="8.63" rx="4.31" ry="4.31" style="fill:#ccc;"/><g><path d="M173.23,20.93c-2.5,0-4.53-2.03-4.53-4.53s2.03-4.53,4.53-4.53,4.53,2.03,4.53,4.53-2.03,4.53-4.53,4.53Zm0-6.99c-1.36,0-2.46,1.1-2.46,2.46s1.1,2.46,2.46,2.46,2.46-1.1,2.46-2.46-1.1-2.46-2.46-2.46Z" style="fill:#fff;"/><path d="M177.95,23.62c-.29,0-.57-.12-.77-.35l-2.86-3.22c-.38-.43-.34-1.08,.09-1.46,.43-.38,1.08-.34,1.46,.09l2.86,3.22c.38,.43,.34,1.08-.09,1.46-.2,.17-.44,.26-.69,.26Z" style="fill:#fff;"/></g><g><path d="M195.14,14.41h-9.13c-.67,0-1.22-.44-1.22-.98s.55-.98,1.22-.98h9.13c.67,0,1.22,.44,1.22,.98s-.55,.98-1.22,.98Z" style="fill:#fff;"/><path d="M195.14,18.39h-9.13c-.67,0-1.22-.44-1.22-.98s.55-.98,1.22-.98h9.13c.67,0,1.22,.44,1.22,.98s-.55,.98-1.22,.98Z" style="fill:#fff;"/><path d="M195.14,22.37h-9.13c-.67,0-1.22-.44-1.22-.98s.55-.98,1.22-.98h9.13c.67,0,1.22,.44,1.22,.98s-.55,.98-1.22,.98Z" style="fill:#fff;"/></g><g><path d="M15.58,25.37h-7.4V12.13h3.01v10.68h4.38v2.55Z" style="fill:#fff;"/><path d="M28.97,18.57c0,4.61-2.24,6.99-5.58,6.99-3.65,0-5.43-3.15-5.43-6.78s2.05-6.83,5.62-6.83c3.85,0,5.39,3.41,5.39,6.63Zm-7.84,.15c-.02,2.53,.84,4.35,2.36,4.35s2.31-1.81,2.31-4.4c0-2.31-.77-4.25-2.31-4.25s-2.36,2.02-2.36,4.3Z" style="fill:#fff;"/><path d="M42.06,24.85c-.79,.29-2.33,.63-3.75,.63-2.09,0-3.6-.55-4.66-1.57-1.2-1.15-1.81-2.98-1.81-5.05,0-4.57,3.1-6.85,6.81-6.85,1.39,0,2.48,.26,3.06,.53l-.56,2.5c-.58-.26-1.3-.44-2.41-.44-2.12,0-3.73,1.25-3.73,4.26,0,2.81,1.46,4.16,3.27,4.16,.43,0,.77-.03,.94-.12v-2.77h-1.58v-2.38h4.42v7.1Z" style="fill:#fff;"/><path d="M56.29,18.57c0,4.61-2.24,6.99-5.58,6.99-3.65,0-5.43-3.15-5.43-6.78s2.05-6.83,5.62-6.83c3.85,0,5.39,3.41,5.39,6.63Zm-7.84,.15c-.02,2.53,.84,4.35,2.36,4.35s2.31-1.81,2.31-4.4c0-2.31-.77-4.25-2.31-4.25s-2.36,2.02-2.36,4.3Z" style="fill:#fff;"/></g></svg>