<?xml version="1.0" encoding="UTF-8"?><svg id="a" xmlns="http://www.w3.org/2000/svg" viewBox="0 0 200 50"><rect x="25.97" y="12.09" width="148.05" height="25.37" style="fill:#333;"/><g><path d="M37.02,28.53h-5.17v-9.26h2.11v7.47h3.07v1.78Z" style="fill:#fff;"/><path d="M45.43,23.78c0,3.22-1.57,4.89-3.91,4.89-2.55,0-3.8-2.2-3.8-4.74s1.44-4.78,3.93-4.78c2.7,0,3.77,2.38,3.77,4.64Zm-5.49,.11c-.01,1.77,.59,3.04,1.65,3.04s1.62-1.27,1.62-3.08c0-1.62-.54-2.97-1.62-2.97s-1.65,1.41-1.65,3.01Z" style="fill:#fff;"/><path d="M53.4,28.17c-.55,.2-1.63,.44-2.62,.44-1.46,0-2.52-.38-3.26-1.1-.84-.8-1.27-2.08-1.27-3.53,0-3.2,2.17-4.79,4.77-4.79,.97,0,1.74,.18,2.14,.37l-.4,1.75c-.41-.18-.91-.31-1.69-.31-1.49,0-2.61,.87-2.61,2.98,0,1.96,1.02,2.91,2.29,2.91,.3,0,.54-.02,.66-.08v-1.94h-1.1v-1.66h3.09v4.97Z" style="fill:#fff;"/><path d="M62.15,23.78c0,3.22-1.57,4.89-3.91,4.89-2.55,0-3.8-2.2-3.8-4.74s1.44-4.78,3.93-4.78c2.7,0,3.77,2.38,3.77,4.64Zm-5.49,.11c-.01,1.77,.59,3.04,1.65,3.04s1.62-1.27,1.62-3.08c0-1.62-.54-2.97-1.62-2.97s-1.65,1.41-1.65,3.01Z" style="fill:#fff;"/></g><rect x="99.63" y="23.2" width="14.34" height="3.87" style="fill:#fff;"/><rect x="117.67" y="23.2" width="14.34" height="3.87" style="fill:#fff;"/><rect x="135.71" y="23.2" width="14.34" height="3.87" style="fill:#fff;"/><g><rect x="159.69" y="20.3" width="6.77" height="6.77" rx="3.38" ry="3.38" style="fill:none; stroke:#fff; stroke-miterlimit:10; stroke-width:2px;"/><line x1="167.64" y1="29.66" x2="164.87" y2="26.54" style="fill:none; stroke:#fff; stroke-linecap:round; stroke-miterlimit:10; stroke-width:2px;"/></g></svg>