<?xml version="1.0" encoding="UTF-8"?><svg id="a" xmlns="http://www.w3.org/2000/svg" viewBox="0 0 200 50"><rect y="9.17" width="200" height="31.2" style="fill:#333;"/><g><path d="M90.25,23.68h-5.17V14.42h2.11v7.47h3.07v1.78Z" style="fill:#fff;"/><path d="M98.65,18.93c0,3.22-1.57,4.89-3.91,4.89-2.55,0-3.8-2.2-3.8-4.74s1.44-4.78,3.93-4.78c2.7,0,3.77,2.38,3.77,4.64Zm-5.49,.11c-.01,1.77,.59,3.04,1.65,3.04s1.62-1.27,1.62-3.08c0-1.62-.54-2.97-1.62-2.97s-1.65,1.41-1.65,3.01Z" style="fill:#fff;"/><path d="M106.62,23.32c-.55,.2-1.63,.44-2.62,.44-1.46,0-2.52-.38-3.26-1.1-.84-.8-1.27-2.08-1.27-3.53,0-3.2,2.17-4.79,4.77-4.79,.97,0,1.74,.18,2.14,.37l-.4,1.75c-.41-.18-.91-.31-1.69-.31-1.49,0-2.61,.87-2.61,2.98,0,1.96,1.02,2.91,2.29,2.91,.3,0,.54-.02,.66-.08v-1.94h-1.1v-1.66h3.09v4.97Z" style="fill:#fff;"/><path d="M115.37,18.93c0,3.22-1.57,4.89-3.91,4.89-2.55,0-3.8-2.2-3.8-4.74s1.44-4.78,3.93-4.78c2.7,0,3.77,2.38,3.77,4.64Zm-5.49,.11c-.01,1.77,.59,3.04,1.65,3.04s1.62-1.27,1.62-3.08c0-1.62-.54-2.97-1.62-2.97s-1.65,1.41-1.65,3.01Z" style="fill:#fff;"/></g><g><rect x="74.79" y="27.6" width="14.34" height="3.87" style="fill:#fff;"/><rect x="92.83" y="27.6" width="14.34" height="3.87" style="fill:#fff;"/><rect x="110.87" y="27.6" width="14.34" height="3.87" style="fill:#fff;"/></g><g><rect x="162.33" y="17.69" width="5.74" height="5.74" rx="2.87" ry="2.87" style="fill:none; stroke:#fff; stroke-miterlimit:10; stroke-width:1.7px;"/><line x1="169.06" y1="25.63" x2="166.72" y2="22.98" style="fill:none; stroke:#fff; stroke-linecap:round; stroke-miterlimit:10; stroke-width:1.7px;"/></g><g><line x1="30.07" y1="18.13" x2="37.56" y2="18.13" style="fill:none; stroke:#fff; stroke-linecap:round; stroke-miterlimit:10; stroke-width:2px;"/><line x1="30.07" y1="21.39" x2="37.56" y2="21.39" style="fill:none; stroke:#fff; stroke-linecap:round; stroke-miterlimit:10; stroke-width:2px;"/><line x1="30.07" y1="24.65" x2="37.56" y2="24.65" style="fill:none; stroke:#fff; stroke-linecap:round; stroke-miterlimit:10; stroke-width:2px;"/></g></svg>