<?xml version="1.0" encoding="UTF-8"?><svg id="a" xmlns="http://www.w3.org/2000/svg" viewBox="0 0 200 330"><rect x="0" y="25.12" width="200" height="304.88" style="fill:#666;"/><rect x="0" y="-.19" width="160.91" height="330.19" style="fill:#e6e6e6;"/><rect x="0" y="-.19" width="200" height="25.3" style="fill:#333;"/><path d="M14.13,8.46H5c-.67,0-1.22-.44-1.22-.98s.55-.98,1.22-.98H14.13c.67,0,1.22,.44,1.22,.98s-.55,.98-1.22,.98Z" style="fill:#fff;"/><path d="M14.13,12.43H5c-.67,0-1.22-.44-1.22-.98s.55-.98,1.22-.98H14.13c.67,0,1.22,.44,1.22,.98s-.55,.98-1.22,.98Z" style="fill:#fff;"/><path d="M14.13,16.41H5c-.67,0-1.22-.44-1.22-.98s.55-.98,1.22-.98H14.13c.67,0,1.22,.44,1.22,.98s-.55,.98-1.22,.98Z" style="fill:#fff;"/><g><path d="M80.75,18.41h-7.4V5.18h3.01V15.86h4.38v2.55Z" style="fill:#fff;"/><path d="M94.14,11.61c0,4.61-2.24,6.99-5.58,6.99-3.65,0-5.43-3.15-5.43-6.78s2.05-6.83,5.62-6.83c3.85,0,5.39,3.41,5.39,6.63Zm-7.84,.15c-.02,2.53,.84,4.35,2.36,4.35s2.31-1.81,2.31-4.4c0-2.31-.77-4.25-2.31-4.25s-2.36,2.02-2.36,4.3Z" style="fill:#fff;"/><path d="M107.23,17.9c-.79,.29-2.33,.63-3.75,.63-2.09,0-3.6-.55-4.66-1.57-1.2-1.15-1.81-2.98-1.81-5.05,0-4.57,3.1-6.85,6.81-6.85,1.39,0,2.48,.26,3.06,.53l-.56,2.5c-.58-.26-1.3-.44-2.41-.44-2.12,0-3.73,1.25-3.73,4.26,0,2.81,1.46,4.16,3.27,4.16,.43,0,.77-.03,.94-.12v-2.77h-1.58v-2.38h4.42v7.1Z" style="fill:#fff;"/><path d="M121.46,11.61c0,4.61-2.24,6.99-5.58,6.99-3.65,0-5.43-3.15-5.43-6.78s2.05-6.83,5.62-6.83c3.85,0,5.39,3.41,5.39,6.63Zm-7.84,.15c-.02,2.53,.84,4.35,2.36,4.35s2.31-1.81,2.31-4.4c0-2.31-.77-4.25-2.31-4.25s-2.36,2.02-2.36,4.3Z" style="fill:#fff;"/></g><path d="M53.49,180.44c-.47,.38-.71,.9-.71,1.56s.21,1.2,.64,1.63c.43,.43,.97,.64,1.63,.64h44.37l-9.64,9.78c-1.13,1.04-1.16,2.1-.07,3.19,1.09,1.09,2.15,1.06,3.19-.07l13.61-13.61c.28-.19,.47-.43,.57-.71,.19-.57,.19-1.13,0-1.7-.09-.28-.28-.52-.57-.71l-13.61-13.61c-1.04-1.13-2.1-1.16-3.19-.07-1.09,1.09-1.06,2.15,.07,3.19l9.64,9.78H55.05c-.66,0-1.18,.24-1.56,.71Z"/></svg>